<svg width="838" height="349" viewBox="0 0 838 349" fill="none" xmlns="http://www.w3.org/2000/svg">
<g clip-path="url(#clip0_170_602)">
<path d="M61.7208 239.879C48.9172 239.879 37.9142 237.25 28.712 232.005C19.5097 226.747 12.4187 219.299 7.45121 209.635C2.48374 199.971 0 188.529 0 175.297C0 162.065 2.48374 151.074 7.45121 141.335C12.4187 131.596 19.4228 123.997 28.4636 118.552C37.5044 113.107 48.1348 110.39 60.3424 110.39C68.5511 110.39 76.201 111.704 83.3045 114.346C90.408 116.987 96.6173 120.943 101.933 126.226C107.248 131.508 111.396 138.13 114.364 146.105C117.332 154.079 118.822 163.405 118.822 174.07V183.622H13.7723V162.065H86.3471C86.3471 157.058 85.2666 152.627 83.1058 148.758C80.9449 144.89 77.9645 141.861 74.1519 139.658C70.3394 137.454 65.9308 136.353 60.9136 136.353C55.8965 136.353 51.0408 137.567 47.0171 139.983C42.9935 142.412 39.8515 145.641 37.5789 149.697C35.3063 153.753 34.1514 158.26 34.1017 163.204V183.697C34.1017 189.906 35.2442 195.264 37.5417 199.783C39.8391 204.302 43.0928 207.782 47.3027 210.236C51.5127 212.689 56.505 213.916 62.2921 213.916C66.1295 213.916 69.6315 213.378 72.8231 212.288C76.0147 211.199 78.7344 209.572 81.007 207.394C83.2797 205.216 85.0059 202.549 86.1856 199.395L118.102 201.523C116.487 209.247 113.171 215.994 108.179 221.727C103.187 227.473 96.7539 231.93 88.9053 235.122C81.0443 238.301 71.9911 239.904 61.7333 239.904L61.7208 239.879Z" fill="#58595B"/>
<path d="M171.117 239.787C163.181 239.787 156.103 238.385 149.893 235.581C143.684 232.777 138.779 228.608 135.19 223.087C131.601 217.567 129.8 210.669 129.8 202.395C129.8 195.422 131.067 189.576 133.613 184.844C136.146 180.112 139.611 176.294 143.982 173.415C148.354 170.536 153.333 168.358 158.922 166.881C164.51 165.416 170.384 164.377 176.544 163.776C183.784 163.012 189.608 162.299 194.042 161.61C198.475 160.934 201.679 159.908 203.679 158.543C205.678 157.179 206.672 155.163 206.672 152.497V152.009C206.672 146.839 205.07 142.833 201.853 140.004C198.637 137.175 194.091 135.76 188.205 135.76C181.996 135.76 177.053 137.137 173.377 139.879C169.701 142.633 167.28 146.075 166.087 150.206L134.171 147.59C135.786 139.966 138.977 133.369 143.734 127.786C148.49 122.203 154.625 117.909 162.163 114.88C169.701 111.863 178.432 110.348 188.366 110.348C195.284 110.348 201.903 111.162 208.249 112.802C214.595 114.429 220.233 116.97 225.175 120.4C230.118 123.83 234.018 128.224 236.874 133.582C239.73 138.94 241.171 145.349 241.171 152.81V237.396H208.447V220.008H207.479C205.479 223.926 202.809 227.369 199.456 230.335C196.103 233.302 192.08 235.618 187.385 237.271C182.691 238.935 177.264 239.762 171.105 239.762L171.117 239.787ZM181.002 215.777C186.081 215.777 190.565 214.75 194.452 212.71C198.339 210.669 201.394 207.903 203.604 204.423C205.815 200.943 206.92 196.987 206.92 192.58V179.274C205.84 179.987 204.374 180.626 202.511 181.189C200.649 181.752 198.55 182.278 196.24 182.741C193.918 183.204 191.595 183.617 189.273 183.968C186.951 184.318 184.84 184.631 182.952 184.907C178.903 185.508 175.364 186.459 172.346 187.761C169.316 189.063 166.969 190.828 165.305 193.031C163.628 195.234 162.796 197.976 162.796 201.243C162.796 205.975 164.51 209.58 167.938 212.059C171.365 214.537 175.724 215.777 181.015 215.777H181.002Z" fill="#58595B"/>
<path d="M365.805 147.778L334.211 149.743C333.665 147.027 332.51 144.561 330.734 142.357C328.958 140.154 326.611 138.389 323.73 137.05C320.837 135.723 317.397 135.047 313.398 135.047C308.058 135.047 303.537 136.173 299.874 138.439C296.198 140.705 294.36 143.709 294.36 147.465C294.36 150.457 295.552 152.985 297.924 155.063C300.296 157.129 304.382 158.794 310.156 160.046L332.672 164.615C344.767 167.118 353.783 171.149 359.719 176.695C365.656 182.24 368.624 189.539 368.624 198.577C368.624 206.801 366.239 214.012 361.458 220.208C356.677 226.417 350.145 231.249 341.861 234.704C333.566 238.159 324.028 239.887 313.224 239.887C296.757 239.887 283.643 236.419 273.894 229.472C264.145 222.524 258.433 213.073 256.769 201.093L290.709 199.303C291.74 204.36 294.223 208.216 298.16 210.857C302.097 213.498 307.151 214.813 313.311 214.813C319.47 214.813 324.227 213.624 327.928 211.258C331.628 208.892 333.504 205.825 333.553 202.069C333.504 198.915 332.175 196.311 329.579 194.27C326.984 192.23 322.985 190.665 317.595 189.576L296.049 185.245C283.903 182.791 274.863 178.548 268.951 172.514C263.04 166.467 260.084 158.769 260.084 149.405C260.084 141.356 262.258 134.408 266.604 128.587C270.951 122.766 277.086 118.272 284.996 115.118C292.907 111.963 302.184 110.386 312.814 110.386C328.524 110.386 340.905 113.728 349.946 120.425C358.987 127.123 364.265 136.236 365.78 147.778H365.805Z" fill="#58595B"/>
<path d="M406.029 284.452C401.657 284.452 397.559 284.114 393.759 283.425C389.946 282.749 386.805 281.886 384.321 280.859L392.095 254.896C396.143 256.148 399.807 256.824 403.073 256.937C406.339 257.049 409.171 256.286 411.58 254.646C413.977 253.018 415.939 250.239 417.454 246.321L419.478 241.014L374.845 112.013H411.133L436.889 204.11H438.181L464.185 112.013H500.721L452.363 250.978C450.04 257.725 446.899 263.621 442.925 268.654C438.951 273.686 433.946 277.579 427.898 280.333C421.85 283.075 414.56 284.452 406.029 284.452Z" fill="#58595B"/>
<g opacity="0.59">
<path d="M576.587 177.408C576.587 139.416 609.26 108.383 646.951 108.383C687.784 108.383 717.315 136.248 717.315 177.408V245.733H682.767V231.875C674.595 240.738 660.152 246.446 643.809 246.446C604.231 246.446 576.587 218.581 576.587 177.421V177.408ZM679.687 177.408C679.687 156.515 665.244 141.306 644.505 141.306C623.765 141.306 609.322 156.503 609.322 177.408C609.322 198.314 624.399 213.511 644.505 213.511C664.61 213.511 679.687 197.675 679.687 177.408Z" fill="white"/>
</g>
<g opacity="0.59">
<path d="M777.645 111.55H734.18V246.96H777.645V111.55Z" fill="white"/>
</g>
<path fill-rule="evenodd" clip-rule="evenodd" d="M690.019 348.733L838 258.364L834.349 83.9973L784.317 56.2818C779.223 66.5467 768.695 73.5947 756.534 73.5947C739.387 73.5947 725.487 59.5832 725.487 42.2991C725.487 36.3927 727.11 30.8684 729.931 26.1548L682.717 0L534.736 90.3691L538.387 264.736L690.019 348.733Z" fill="#292F51"/>
</g>
<g clip-path="url(#clip1_170_602)">
<path d="M61.7208 239.879C48.9172 239.879 37.9142 237.25 28.712 232.005C19.5097 226.747 12.4187 219.299 7.45121 209.635C2.48374 199.971 0 188.529 0 175.297C0 162.065 2.48374 151.074 7.45121 141.335C12.4187 131.596 19.4228 123.997 28.4636 118.552C37.5044 113.107 48.1348 110.39 60.3424 110.39C68.5511 110.39 76.201 111.704 83.3045 114.346C90.408 116.987 96.6173 120.943 101.933 126.226C107.248 131.508 111.396 138.13 114.364 146.105C117.332 154.079 118.822 163.405 118.822 174.07V183.622H13.7723V162.065H86.3471C86.3471 157.058 85.2666 152.627 83.1058 148.758C80.9449 144.89 77.9645 141.861 74.1519 139.658C70.3394 137.454 65.9308 136.353 60.9136 136.353C55.8965 136.353 51.0408 137.567 47.0171 139.983C42.9935 142.412 39.8515 145.641 37.5789 149.697C35.3063 153.753 34.1514 158.26 34.1017 163.204V183.697C34.1017 189.906 35.2442 195.264 37.5417 199.783C39.8391 204.302 43.0928 207.782 47.3027 210.236C51.5127 212.689 56.505 213.916 62.2921 213.916C66.1295 213.916 69.6315 213.378 72.8231 212.288C76.0147 211.199 78.7344 209.572 81.007 207.394C83.2797 205.216 85.0059 202.549 86.1856 199.395L118.102 201.523C116.487 209.247 113.171 215.994 108.179 221.727C103.187 227.473 96.7539 231.93 88.9053 235.122C81.0443 238.301 71.9911 239.904 61.7333 239.904L61.7208 239.879Z" fill="#58595B"/>
<path d="M171.117 239.787C163.181 239.787 156.103 238.385 149.893 235.581C143.684 232.777 138.779 228.608 135.19 223.087C131.601 217.567 129.8 210.669 129.8 202.395C129.8 195.422 131.067 189.576 133.613 184.844C136.146 180.112 139.611 176.294 143.982 173.415C148.354 170.536 153.333 168.358 158.922 166.881C164.51 165.416 170.384 164.377 176.544 163.776C183.784 163.012 189.608 162.299 194.042 161.61C198.475 160.934 201.679 159.908 203.679 158.543C205.678 157.179 206.672 155.163 206.672 152.497V152.009C206.672 146.839 205.07 142.833 201.853 140.004C198.637 137.175 194.091 135.76 188.205 135.76C181.996 135.76 177.053 137.137 173.377 139.879C169.701 142.633 167.28 146.075 166.087 150.206L134.171 147.59C135.786 139.966 138.977 133.369 143.734 127.786C148.49 122.203 154.625 117.909 162.163 114.88C169.701 111.863 178.432 110.348 188.366 110.348C195.284 110.348 201.903 111.162 208.249 112.802C214.595 114.429 220.233 116.97 225.175 120.4C230.118 123.83 234.018 128.224 236.874 133.582C239.73 138.94 241.171 145.349 241.171 152.81V237.396H208.447V220.008H207.479C205.479 223.926 202.809 227.369 199.456 230.335C196.103 233.302 192.08 235.618 187.385 237.271C182.691 238.935 177.264 239.762 171.105 239.762L171.117 239.787ZM181.002 215.777C186.081 215.777 190.565 214.75 194.452 212.71C198.339 210.669 201.394 207.903 203.604 204.423C205.815 200.943 206.92 196.987 206.92 192.58V179.274C205.84 179.987 204.374 180.626 202.511 181.189C200.649 181.752 198.55 182.278 196.24 182.741C193.918 183.204 191.595 183.617 189.273 183.968C186.951 184.318 184.84 184.631 182.952 184.907C178.903 185.508 175.364 186.459 172.346 187.761C169.316 189.063 166.969 190.828 165.305 193.031C163.628 195.234 162.796 197.976 162.796 201.243C162.796 205.975 164.51 209.58 167.938 212.059C171.365 214.537 175.724 215.777 181.015 215.777H181.002Z" fill="#58595B"/>
<path d="M365.805 147.778L334.211 149.743C333.665 147.027 332.51 144.561 330.734 142.357C328.958 140.154 326.611 138.389 323.73 137.05C320.837 135.723 317.397 135.047 313.398 135.047C308.058 135.047 303.537 136.173 299.874 138.439C296.198 140.705 294.36 143.709 294.36 147.465C294.36 150.457 295.552 152.985 297.924 155.063C300.296 157.129 304.382 158.794 310.156 160.046L332.672 164.615C344.767 167.118 353.783 171.149 359.719 176.695C365.656 182.24 368.624 189.539 368.624 198.577C368.624 206.801 366.239 214.012 361.458 220.208C356.677 226.417 350.145 231.249 341.861 234.704C333.566 238.159 324.028 239.887 313.224 239.887C296.757 239.887 283.643 236.419 273.894 229.472C264.145 222.524 258.433 213.073 256.769 201.093L290.709 199.303C291.74 204.36 294.223 208.216 298.16 210.857C302.097 213.498 307.151 214.813 313.311 214.813C319.47 214.813 324.227 213.624 327.928 211.258C331.628 208.892 333.504 205.825 333.553 202.069C333.504 198.915 332.175 196.311 329.579 194.27C326.984 192.23 322.985 190.665 317.595 189.576L296.049 185.245C283.903 182.791 274.863 178.548 268.951 172.514C263.04 166.467 260.084 158.769 260.084 149.405C260.084 141.356 262.258 134.408 266.604 128.587C270.951 122.766 277.086 118.272 284.996 115.118C292.907 111.963 302.184 110.386 312.814 110.386C328.524 110.386 340.905 113.728 349.946 120.425C358.987 127.123 364.265 136.236 365.78 147.778H365.805Z" fill="#58595B"/>
<path d="M406.029 284.452C401.657 284.452 397.559 284.114 393.759 283.425C389.946 282.749 386.805 281.886 384.321 280.859L392.095 254.896C396.143 256.148 399.807 256.824 403.073 256.937C406.339 257.049 409.171 256.286 411.58 254.646C413.977 253.018 415.939 250.239 417.454 246.321L419.478 241.014L374.845 112.013H411.133L436.889 204.11H438.181L464.185 112.013H500.721L452.363 250.978C450.04 257.725 446.899 263.621 442.925 268.654C438.951 273.686 433.946 277.579 427.898 280.333C421.85 283.075 414.56 284.452 406.029 284.452Z" fill="#58595B"/>
<g opacity="0.59">
<path d="M576.587 177.408C576.587 139.416 609.26 108.383 646.951 108.383C687.784 108.383 717.315 136.248 717.315 177.408V245.733H682.767V231.875C674.595 240.738 660.152 246.446 643.809 246.446C604.231 246.446 576.587 218.581 576.587 177.421V177.408ZM679.687 177.408C679.687 156.515 665.244 141.306 644.505 141.306C623.765 141.306 609.322 156.503 609.322 177.408C609.322 198.314 624.399 213.511 644.505 213.511C664.61 213.511 679.687 197.675 679.687 177.408Z" fill="white"/>
</g>
<g opacity="0.59">
<path d="M777.645 111.55H734.18V246.96H777.645V111.55Z" fill="white"/>
</g>
<path fill-rule="evenodd" clip-rule="evenodd" d="M690.019 348.733L838 258.364L834.349 83.9973L784.317 56.2818C779.223 66.5467 768.695 73.5947 756.534 73.5947C739.387 73.5947 725.487 59.5832 725.487 42.2991C725.487 36.3927 727.11 30.8684 729.931 26.1548L682.717 0L534.736 90.3691L538.387 264.736L690.019 348.733Z" fill="#292F51"/>
</g>
<path d="M735.329 42.8925C735.329 30.8624 745.376 21.3611 757.323 21.3611C769.269 21.3611 778.683 30.8624 778.683 42.8925C778.683 54.9225 769.257 65.0622 757.323 65.0622C745.388 65.0622 735.329 54.935 735.329 42.8925Z" fill="#292F51"/>
<path d="M577.752 178.33C577.752 140.337 610.425 109.304 648.116 109.304C688.949 109.304 718.48 137.17 718.48 178.33V246.654H683.931V232.797C675.76 241.659 661.317 247.368 644.974 247.368C605.396 247.368 577.752 219.502 577.752 178.342V178.33ZM680.852 178.33C680.852 157.437 666.409 142.227 645.67 142.227C624.93 142.227 610.487 157.424 610.487 178.33C610.487 199.235 625.564 214.432 645.67 214.432C665.775 214.432 680.852 198.597 680.852 178.33Z" fill="white"/>
<path d="M778.81 112.471H735.344V247.881H778.81V112.471Z" fill="white"/>
<g clip-path="url(#clip2_170_602)">
<path d="M61.7208 239.879C48.9172 239.879 37.9142 237.25 28.712 232.005C19.5097 226.747 12.4187 219.299 7.45121 209.635C2.48374 199.971 0 188.529 0 175.297C0 162.065 2.48374 151.074 7.45121 141.335C12.4187 131.596 19.4228 123.997 28.4636 118.552C37.5044 113.107 48.1348 110.39 60.3424 110.39C68.5511 110.39 76.201 111.704 83.3045 114.346C90.408 116.987 96.6173 120.943 101.933 126.226C107.248 131.508 111.396 138.13 114.364 146.105C117.332 154.079 118.822 163.405 118.822 174.07V183.622H13.7723V162.065H86.3471C86.3471 157.058 85.2666 152.627 83.1058 148.758C80.9449 144.89 77.9645 141.861 74.1519 139.658C70.3394 137.454 65.9308 136.353 60.9136 136.353C55.8965 136.353 51.0408 137.567 47.0171 139.983C42.9935 142.412 39.8515 145.641 37.5789 149.697C35.3063 153.753 34.1514 158.26 34.1017 163.204V183.697C34.1017 189.906 35.2442 195.264 37.5417 199.783C39.8391 204.302 43.0928 207.782 47.3027 210.236C51.5127 212.689 56.505 213.916 62.2921 213.916C66.1295 213.916 69.6315 213.378 72.8231 212.288C76.0147 211.199 78.7344 209.572 81.007 207.394C83.2797 205.216 85.0059 202.549 86.1856 199.395L118.102 201.523C116.487 209.247 113.171 215.994 108.179 221.727C103.187 227.473 96.7539 231.93 88.9053 235.122C81.0443 238.301 71.9911 239.904 61.7333 239.904L61.7208 239.879Z" fill="#58595B"/>
<path d="M171.117 239.787C163.181 239.787 156.103 238.385 149.893 235.581C143.684 232.777 138.779 228.608 135.19 223.087C131.601 217.567 129.8 210.669 129.8 202.395C129.8 195.422 131.067 189.576 133.613 184.844C136.146 180.112 139.611 176.294 143.982 173.415C148.354 170.536 153.333 168.358 158.922 166.881C164.51 165.416 170.384 164.377 176.544 163.776C183.784 163.012 189.608 162.299 194.042 161.61C198.475 160.934 201.679 159.908 203.679 158.543C205.678 157.179 206.672 155.163 206.672 152.497V152.009C206.672 146.839 205.07 142.833 201.853 140.004C198.637 137.175 194.091 135.76 188.205 135.76C181.996 135.76 177.053 137.137 173.377 139.879C169.701 142.633 167.28 146.075 166.087 150.206L134.171 147.59C135.786 139.966 138.977 133.369 143.734 127.786C148.49 122.203 154.625 117.909 162.163 114.88C169.701 111.863 178.432 110.348 188.366 110.348C195.284 110.348 201.903 111.162 208.249 112.802C214.595 114.429 220.233 116.97 225.175 120.4C230.118 123.83 234.018 128.224 236.874 133.582C239.73 138.94 241.171 145.349 241.171 152.81V237.396H208.447V220.008H207.479C205.479 223.926 202.809 227.369 199.456 230.335C196.103 233.302 192.08 235.618 187.385 237.271C182.691 238.935 177.264 239.762 171.105 239.762L171.117 239.787ZM181.002 215.777C186.081 215.777 190.565 214.75 194.452 212.71C198.339 210.669 201.394 207.903 203.604 204.423C205.815 200.943 206.92 196.987 206.92 192.58V179.274C205.84 179.987 204.374 180.626 202.511 181.189C200.649 181.752 198.55 182.278 196.24 182.741C193.918 183.204 191.595 183.617 189.273 183.968C186.951 184.318 184.84 184.631 182.952 184.907C178.903 185.508 175.364 186.459 172.346 187.761C169.316 189.063 166.969 190.828 165.305 193.031C163.628 195.234 162.796 197.976 162.796 201.243C162.796 205.975 164.51 209.58 167.938 212.059C171.365 214.537 175.724 215.777 181.015 215.777H181.002Z" fill="#58595B"/>
<path d="M365.805 147.778L334.211 149.743C333.665 147.027 332.51 144.561 330.734 142.357C328.958 140.154 326.611 138.389 323.73 137.05C320.837 135.723 317.397 135.047 313.398 135.047C308.058 135.047 303.537 136.173 299.874 138.439C296.198 140.705 294.36 143.709 294.36 147.465C294.36 150.457 295.552 152.985 297.924 155.063C300.296 157.129 304.382 158.794 310.156 160.046L332.672 164.615C344.767 167.118 353.783 171.149 359.719 176.695C365.656 182.24 368.624 189.539 368.624 198.577C368.624 206.801 366.239 214.012 361.458 220.208C356.677 226.417 350.145 231.249 341.861 234.704C333.566 238.159 324.028 239.887 313.224 239.887C296.757 239.887 283.643 236.419 273.894 229.472C264.145 222.524 258.433 213.073 256.769 201.093L290.709 199.303C291.74 204.36 294.223 208.216 298.16 210.857C302.097 213.498 307.151 214.813 313.311 214.813C319.47 214.813 324.227 213.624 327.928 211.258C331.628 208.892 333.504 205.825 333.553 202.069C333.504 198.915 332.175 196.311 329.579 194.27C326.984 192.23 322.985 190.665 317.595 189.576L296.049 185.245C283.903 182.791 274.863 178.548 268.951 172.514C263.04 166.467 260.084 158.769 260.084 149.405C260.084 141.356 262.258 134.408 266.604 128.587C270.951 122.766 277.086 118.272 284.996 115.118C292.907 111.963 302.184 110.386 312.814 110.386C328.524 110.386 340.905 113.728 349.946 120.425C358.987 127.123 364.265 136.236 365.78 147.778H365.805Z" fill="#58595B"/>
<path d="M406.029 284.452C401.657 284.452 397.559 284.114 393.759 283.425C389.946 282.749 386.805 281.886 384.321 280.859L392.095 254.896C396.143 256.148 399.807 256.824 403.073 256.937C406.339 257.049 409.171 256.286 411.58 254.646C413.977 253.018 415.939 250.239 417.454 246.321L419.478 241.014L374.845 112.013H411.133L436.889 204.11H438.181L464.185 112.013H500.721L452.363 250.978C450.04 257.725 446.899 263.621 442.925 268.654C438.951 273.686 433.946 277.579 427.898 280.333C421.85 283.075 414.56 284.452 406.029 284.452Z" fill="#58595B"/>
<g opacity="0.59">
<path d="M576.587 177.408C576.587 139.416 609.26 108.383 646.951 108.383C687.784 108.383 717.315 136.248 717.315 177.408V245.733H682.767V231.875C674.595 240.738 660.152 246.446 643.809 246.446C604.231 246.446 576.587 218.581 576.587 177.421V177.408ZM679.687 177.408C679.687 156.515 665.244 141.306 644.505 141.306C623.765 141.306 609.322 156.503 609.322 177.408C609.322 198.314 624.399 213.511 644.505 213.511C664.61 213.511 679.687 197.675 679.687 177.408Z" fill="white"/>
</g>
<g opacity="0.59">
<path d="M777.645 111.55H734.18V246.96H777.645V111.55Z" fill="white"/>
</g>
<path fill-rule="evenodd" clip-rule="evenodd" d="M690.019 348.733L838 258.364L834.349 83.9973L784.317 56.2818C779.223 66.5467 768.695 73.5947 756.534 73.5947C739.387 73.5947 725.487 59.5832 725.487 42.2991C725.487 36.3927 727.11 30.8684 729.931 26.1548L682.717 0L534.736 90.3691L538.387 264.736L690.019 348.733Z" fill="#292F51"/>
</g>
<g clip-path="url(#clip3_170_602)">
<path d="M61.7208 239.879C48.9172 239.879 37.9142 237.25 28.712 232.005C19.5097 226.747 12.4187 219.299 7.45121 209.635C2.48374 199.971 0 188.529 0 175.297C0 162.065 2.48374 151.074 7.45121 141.335C12.4187 131.596 19.4228 123.997 28.4636 118.552C37.5044 113.107 48.1348 110.39 60.3424 110.39C68.5511 110.39 76.201 111.704 83.3045 114.346C90.408 116.987 96.6173 120.943 101.933 126.226C107.248 131.508 111.396 138.13 114.364 146.105C117.332 154.079 118.822 163.405 118.822 174.07V183.622H13.7723V162.065H86.3471C86.3471 157.058 85.2666 152.627 83.1058 148.758C80.9449 144.89 77.9645 141.861 74.1519 139.658C70.3394 137.454 65.9308 136.353 60.9136 136.353C55.8965 136.353 51.0408 137.567 47.0171 139.983C42.9935 142.412 39.8515 145.641 37.5789 149.697C35.3063 153.753 34.1514 158.26 34.1017 163.204V183.697C34.1017 189.906 35.2442 195.264 37.5417 199.783C39.8391 204.302 43.0928 207.782 47.3027 210.236C51.5127 212.689 56.505 213.916 62.2921 213.916C66.1295 213.916 69.6315 213.378 72.8231 212.288C76.0147 211.199 78.7344 209.572 81.007 207.394C83.2797 205.216 85.0059 202.549 86.1856 199.395L118.102 201.523C116.487 209.247 113.171 215.994 108.179 221.727C103.187 227.473 96.7539 231.93 88.9053 235.122C81.0443 238.301 71.9911 239.904 61.7333 239.904L61.7208 239.879Z" fill="#58595B"/>
<path d="M171.117 239.787C163.181 239.787 156.103 238.385 149.893 235.581C143.684 232.777 138.779 228.608 135.19 223.087C131.601 217.567 129.8 210.669 129.8 202.395C129.8 195.422 131.067 189.576 133.613 184.844C136.146 180.112 139.611 176.294 143.982 173.415C148.354 170.536 153.333 168.358 158.922 166.881C164.51 165.416 170.384 164.377 176.544 163.776C183.784 163.012 189.608 162.299 194.042 161.61C198.475 160.934 201.679 159.908 203.679 158.543C205.678 157.179 206.672 155.163 206.672 152.497V152.009C206.672 146.839 205.07 142.833 201.853 140.004C198.637 137.175 194.091 135.76 188.205 135.76C181.996 135.76 177.053 137.137 173.377 139.879C169.701 142.633 167.28 146.075 166.087 150.206L134.171 147.59C135.786 139.966 138.977 133.369 143.734 127.786C148.49 122.203 154.625 117.909 162.163 114.88C169.701 111.863 178.432 110.348 188.366 110.348C195.284 110.348 201.903 111.162 208.249 112.802C214.595 114.429 220.233 116.97 225.175 120.4C230.118 123.83 234.018 128.224 236.874 133.582C239.73 138.94 241.171 145.349 241.171 152.81V237.396H208.447V220.008H207.479C205.479 223.926 202.809 227.369 199.456 230.335C196.103 233.302 192.08 235.618 187.385 237.271C182.691 238.935 177.264 239.762 171.105 239.762L171.117 239.787ZM181.002 215.777C186.081 215.777 190.565 214.75 194.452 212.71C198.339 210.669 201.394 207.903 203.604 204.423C205.815 200.943 206.92 196.987 206.92 192.58V179.274C205.84 179.987 204.374 180.626 202.511 181.189C200.649 181.752 198.55 182.278 196.24 182.741C193.918 183.204 191.595 183.617 189.273 183.968C186.951 184.318 184.84 184.631 182.952 184.907C178.903 185.508 175.364 186.459 172.346 187.761C169.316 189.063 166.969 190.828 165.305 193.031C163.628 195.234 162.796 197.976 162.796 201.243C162.796 205.975 164.51 209.58 167.938 212.059C171.365 214.537 175.724 215.777 181.015 215.777H181.002Z" fill="#58595B"/>
<path d="M365.805 147.778L334.211 149.743C333.665 147.027 332.51 144.561 330.734 142.357C328.958 140.154 326.611 138.389 323.73 137.05C320.837 135.723 317.397 135.047 313.398 135.047C308.058 135.047 303.537 136.173 299.874 138.439C296.198 140.705 294.36 143.709 294.36 147.465C294.36 150.457 295.552 152.985 297.924 155.063C300.296 157.129 304.382 158.794 310.156 160.046L332.672 164.615C344.767 167.118 353.783 171.149 359.719 176.695C365.656 182.24 368.624 189.539 368.624 198.577C368.624 206.801 366.239 214.012 361.458 220.208C356.677 226.417 350.145 231.249 341.861 234.704C333.566 238.159 324.028 239.887 313.224 239.887C296.757 239.887 283.643 236.419 273.894 229.472C264.145 222.524 258.433 213.073 256.769 201.093L290.709 199.303C291.74 204.36 294.223 208.216 298.16 210.857C302.097 213.498 307.151 214.813 313.311 214.813C319.47 214.813 324.227 213.624 327.928 211.258C331.628 208.892 333.504 205.825 333.553 202.069C333.504 198.915 332.175 196.311 329.579 194.27C326.984 192.23 322.985 190.665 317.595 189.576L296.049 185.245C283.903 182.791 274.863 178.548 268.951 172.514C263.04 166.467 260.084 158.769 260.084 149.405C260.084 141.356 262.258 134.408 266.604 128.587C270.951 122.766 277.086 118.272 284.996 115.118C292.907 111.963 302.184 110.386 312.814 110.386C328.524 110.386 340.905 113.728 349.946 120.425C358.987 127.123 364.265 136.236 365.78 147.778H365.805Z" fill="#58595B"/>
<path d="M406.029 284.452C401.657 284.452 397.559 284.114 393.759 283.425C389.946 282.749 386.805 281.886 384.321 280.859L392.095 254.896C396.143 256.148 399.807 256.824 403.073 256.937C406.339 257.049 409.171 256.286 411.58 254.646C413.977 253.018 415.939 250.239 417.454 246.321L419.478 241.014L374.845 112.013H411.133L436.889 204.11H438.181L464.185 112.013H500.721L452.363 250.978C450.04 257.725 446.899 263.621 442.925 268.654C438.951 273.686 433.946 277.579 427.898 280.333C421.85 283.075 414.56 284.452 406.029 284.452Z" fill="#58595B"/>
<g opacity="0.59">
<path d="M576.587 177.408C576.587 139.416 609.26 108.383 646.951 108.383C687.784 108.383 717.315 136.248 717.315 177.408V245.733H682.767V231.875C674.595 240.738 660.152 246.446 643.809 246.446C604.231 246.446 576.587 218.581 576.587 177.421V177.408ZM679.687 177.408C679.687 156.515 665.244 141.306 644.505 141.306C623.765 141.306 609.322 156.503 609.322 177.408C609.322 198.314 624.399 213.511 644.505 213.511C664.61 213.511 679.687 197.675 679.687 177.408Z" fill="white"/>
</g>
<g opacity="0.59">
<path d="M777.645 111.55H734.18V246.96H777.645V111.55Z" fill="white"/>
</g>
<path fill-rule="evenodd" clip-rule="evenodd" d="M690.019 348.733L838 258.364L834.349 83.9973L784.317 56.2818C779.223 66.5467 768.695 73.5947 756.534 73.5947C739.387 73.5947 725.487 59.5832 725.487 42.2991C725.487 36.3927 727.11 30.8684 729.931 26.1548L682.717 0L534.736 90.3691L538.387 264.736L690.019 348.733Z" fill="#292F51"/>
</g>
<path d="M735.329 42.8925C735.329 30.8624 745.376 21.3611 757.323 21.3611C769.269 21.3611 778.683 30.8624 778.683 42.8925C778.683 54.9225 769.257 65.0622 757.323 65.0622C745.388 65.0622 735.329 54.935 735.329 42.8925Z" fill="#292F51"/>
<path d="M577.752 178.33C577.752 140.337 610.425 109.304 648.116 109.304C688.949 109.304 718.48 137.17 718.48 178.33V246.654H683.931V232.797C675.76 241.659 661.317 247.368 644.974 247.368C605.396 247.368 577.752 219.502 577.752 178.342V178.33ZM680.852 178.33C680.852 157.437 666.409 142.227 645.67 142.227C624.93 142.227 610.487 157.424 610.487 178.33C610.487 199.235 625.564 214.432 645.67 214.432C665.775 214.432 680.852 198.597 680.852 178.33Z" fill="white"/>
<path d="M778.81 112.471H735.344V247.881H778.81V112.471Z" fill="white"/>
<defs>
<clipPath id="clip0_170_602">
<rect width="838" height="348.733" fill="white"/>
</clipPath>
<clipPath id="clip1_170_602">
<rect width="838" height="348.733" fill="white"/>
</clipPath>
<clipPath id="clip2_170_602">
<rect width="838" height="348.733" fill="white"/>
</clipPath>
<clipPath id="clip3_170_602">
<rect width="838" height="348.733" fill="white"/>
</clipPath>
</defs>
</svg>
